
<svg version="1.1" id="Capa_1" fill="#0000008a" xmlns="http://www.w3.org/2000/svg" xmlns:xlink="http://www.w3.org/1999/xlink" x="0px" y="0px"
	 viewBox="0 0 456.113 456.113" style="enable-background:new 0 0 456.113 456.113;" xml:space="preserve">
<g>
	<g id="Layer_1_54_">
		<path d="M365.73,421.173l-64.199-133.165c-0.783-1.624-1.035-3.29-1.404-5.05c-1.022-4.878-2.045-9.753-3.066-14.631
			c-3.406-16.248-6.813-32.495-10.219-48.744c-1.378-6.57-2.755-13.14-4.132-19.708c-0.771-3.68-1.397-7.465-2.52-11.057
			c-1.276-4.087-3.175-7.973-5.619-11.487c11.367,0.123,21.179-6.704,27.024-16.117c0.501-0.807,0.98-1.633,1.397-2.487
			c1.258-2.584-0.085-5.778-2.869-6.598c-1.394-0.409-2.589,0.075-3.949,0.296c-1.288,0.208-2.605,0.215-3.905,0.125
			c-3.053-0.213-6.066-0.946-8.987-1.838c-5.849-1.783-11.507-4.284-16.888-7.18c4.636-4.964,10.734-8.407,17.38-9.824
			c4.886-1.042,10.809-1.318,15.569,0.454l15.465,5.761c1.015,0.378,2.076,0.872,3.154,1.024c3.219,0.457,6.306-1.789,6.877-4.984
			c0.514-2.879-1.16-5.784-3.894-6.803l-11.606-4.32c0,0,0.106-1.808,0.08-2.51c-0.132-3.504-0.649-6.995-1.542-10.388
			c-1.794-6.812-5.108-13.193-9.639-18.585c-8.136-9.683-19.95-15.837-32.55-16.939c-12.23-1.067-24.642,2.645-34.223,10.336
			c-9.758,7.836-16.155,19.359-17.617,31.789c-1.431,12.167,1.888,24.668,9.255,34.467c2.011,2.675,4.301,5.122,6.819,7.325
			c-8.59,2.07-35.955,6.871-40.949,7.534c-2.426,0.321-4.858,0.611-7.297,0.825c-1.16,0.102-4.752,0.483-4.752,0.483
			s-2.621-0.67-3.305-0.933c-1.494-0.571-2.966-1.208-4.424-1.865c-2.824-1.276-5.607-2.642-8.368-4.052
			c-5.369-2.745-10.659-5.641-15.898-8.621c7.448-6.661,14.896-13.324,22.345-19.985c12.151-10.868,24.302-21.736,36.453-32.604
			c3.06-2.736,6.12-5.475,9.18-8.211c3.488-3.12,6.743-6.549,10.033-9.877c5.119-5.181,10.137-10.464,14.993-15.893
			c7.211-8.064,14.144-16.45,20.14-25.47c3.768-5.666,7.262-11.652,9.557-18.082c2.102-5.889,3.602-13.497-0.431-18.95
			c-1.463-1.979-4.628-5.861-6.146-4.254s-2.231,2.563-2.443,2.81c-2.524,2.932-5.049,5.863-7.574,8.796
			c-8.737,10.146-17.475,20.294-26.212,30.44c-11.177,12.979-22.353,25.958-33.529,38.938
			c-10.641,12.358-21.282,24.716-31.922,37.073c-7.131,8.282-14.263,16.563-21.394,24.845c-1.32,1.532-2.639,3.065-3.959,4.598
			c-0.372,0.433-1.814-0.291-2.321-0.376c-3.068-0.516-6.25-0.287-9.214,0.657c-6.39,2.037-11.396,7.388-12.999,13.904
			c-0.821,3.338-0.735,6.877,0.229,10.175c0.437,1.708,1.144,2.667,1.144,2.667l-4.645,5.213c0,0-6.567-0.463-11.448,4.418
			c-4.45,4.45-7.243,10.427-6.621,16.688c0.301,3.043,1.322,6.002,2.971,8.577c1.22,1.907,2.812,3.455,4.395,5.047
			c10.376,10.425,20.997,20.683,32.317,30.085c8.061,6.694,16.846,13.722,27.4,15.693c7.473,1.396,15.377,0.828,22.909,0.302
			c7.974-0.558,15.927-1.431,23.858-2.415c1.705-0.212,3.41-0.431,5.114-0.654c0.429-0.056,1.267-0.118,1.267-0.118l7.296,34.993
			c0.218,1.041,0.632,1.759,0.073,2.651c-1.261,2.01-2.52,4.021-3.78,6.032c-6.926,11.057-13.844,22.117-20.778,33.168
			c-3.654,5.824-5.269,12.478-3.729,19.287c0.345,1.525,0.875,2.985,1.388,4.459l27.346,78.563c0.396,1.135,0.791,2.27,1.185,3.403
			c1.497,4.301,4.187,8.11,7.783,10.914c9.84,7.675,24.417,6.183,32.427-3.421c3.783-4.535,5.758-10.447,5.424-16.346
			c-0.127-2.243-0.656-4.383-1.264-6.527c-3.79-13.388-7.581-26.775-11.371-40.165c-2.086-7.368-4.172-14.738-6.259-22.107
			c-0.639-2.257-2.435-9.008-2.435-9.008l13.1-18.108c0,0,2.822,0.44,6.695,0.137c0.307-0.023,2.496-0.181,2.496-0.181l18.39,32.811
			c8.338,14.877,16.677,29.753,25.014,44.631c5.36,9.562,10.72,19.125,16.079,28.688c3.589,6.401,9.118,11.191,16.456,12.706
			c12.125,2.504,24.394-5.23,27.429-17.215C368.689,431.796,368.109,426.108,365.73,421.173z M181.285,215.714
			c-0.643,0.096-0.855,0.127-0.816,0.12c-5.577,0.826-11.211,1.628-16.85,1.798c-1.222,0.037-2.101-0.66-3.127-1.297
			c-1.369-0.846-2.71-1.737-4.035-2.65c-2.655-1.831-5.251-3.75-7.816-5.707c-8.794-6.704-17.268-13.836-25.583-21.122
			c6.161,4.271,12.4,8.438,18.776,12.384c6.374,3.943,12.89,7.738,19.846,10.567c9.582,3.899,37.031,2.011,37.031,2.011
			s0.131,0.624,0.197,0.938C193.103,213.818,185.099,215.145,181.285,215.714z M270.16,167.441
			c-3.953-0.844-7.676-2.582-11.118-4.668c-0.438-0.266-0.873-0.538-1.304-0.816c0.06-0.466,0.129-0.931,0.21-1.395
			c0.184-1.075,0.423-2.144,0.712-3.197c0.579-2.102,1.365-4.146,2.344-6.095c8.728,4.806,18.36,9.104,28.315,10.392
			C284.154,166.771,277.292,168.962,270.16,167.441z"/>
	</g>
</g>
</svg>
