
<!-- Generator: Adobe Illustrator 19.0.0, SVG Export Plug-In . SVG Version: 6.00 Build 0)  -->
<svg version="1.1" id="Capa_1" fill="#0000008a" xmlns="http://www.w3.org/2000/svg" xmlns:xlink="http://www.w3.org/1999/xlink" x="0px" y="0px"
	 viewBox="0 0 512.16 512.16" style="enable-background:new 0 0 512.16 512.16;" xml:space="preserve">
<g transform="translate(0 -1)">
	<g>
		<g>
			<path d="M487.276,147.221c-0.591,0.856-1.164,1.718-1.758,2.573c-1.861,2.686-5.015,4.175-8.272,3.904
				c-3.257-0.271-6.122-2.26-7.513-5.217c-1.392-2.957-1.099-6.432,0.768-9.115c2.415-3.479,4.781-6.978,7.152-10.474
				c-3.676-6.358-7.678-12.573-11.946-18.661c-53.076,62.801-110.421,125.215-170.84,185.639
				c-60.365,60.37-122.788,117.721-185.66,170.869c6.057,4.262,12.267,8.246,18.631,11.954c3.517-2.386,7.036-4.767,10.539-7.197
				c4.147-2.868,9.833-1.837,12.709,2.304c2.876,4.142,1.856,9.83-2.281,12.713c-0.905,0.628-1.816,1.234-2.721,1.859
				c97.84,46.489,214.348,26.384,290.949-50.208S533.752,245.067,487.276,147.221z M193.527,454.076L193.527,454.076
				c-4.902,3.719-9.825,7.394-14.768,11.027c-2.631,1.94-6.098,2.326-9.092,1.014c-2.994-1.312-5.059-4.124-5.416-7.373
				c-0.357-3.249,1.049-6.442,3.687-8.373c4.857-3.576,9.702-7.198,14.536-10.866c2.603-1.975,6.062-2.41,9.073-1.144
				s5.118,4.044,5.527,7.286C197.481,448.888,196.13,452.101,193.527,454.076z M236.839,419.771L236.839,419.771
				c-4.741,3.924-9.503,7.805-14.285,11.643c-2.549,2.045-5.995,2.575-9.04,1.39c-3.045-1.185-5.227-3.904-5.723-7.134
				c-0.496-3.23,0.768-6.479,3.316-8.524c4.714-3.777,9.405-7.598,14.071-11.464c3.892-3.196,9.637-2.643,12.848,1.237
				C241.237,410.799,240.706,416.545,236.839,419.771z M278.669,383.714c-4.571,4.107-9.164,8.177-13.777,12.21
				c-3.803,3.314-9.571,2.922-12.891-0.876c-3.32-3.798-2.937-9.566,0.855-12.892c4.554-3.978,9.086-7.994,13.598-12.049
				c2.426-2.215,5.853-2.958,8.979-1.947s5.468,3.621,6.137,6.837C282.24,378.212,281.132,381.54,278.669,383.714L278.669,383.714z
				 M319,345.977L319,345.977c-4.411,4.29-8.839,8.545-13.286,12.763c-3.666,3.471-9.453,3.314-12.924-0.353
				c-3.472-3.666-3.314-9.453,0.353-12.924c4.384-4.156,8.747-8.351,13.089-12.585c3.618-3.52,9.403-3.443,12.927,0.172
				S322.611,342.45,319,345.977z M357.786,306.674L357.786,306.674c-4.215,4.446-8.465,8.87-12.75,13.272
				c-3.525,3.609-9.307,3.682-12.922,0.163c-3.615-3.519-3.698-9.301-0.185-12.922c4.232-4.344,8.429-8.708,12.59-13.094
				c3.474-3.664,9.26-3.818,12.924-0.344C361.106,297.224,361.26,303.01,357.786,306.674z M394.955,265.844
				c-4.027,4.612-8.095,9.205-12.206,13.781c-3.378,3.746-9.151,4.05-12.904,0.679s-4.067-9.143-0.704-12.902
				c4.053-4.509,8.068-9.037,12.045-13.585c2.146-2.47,5.447-3.604,8.658-2.975c3.211,0.629,5.84,2.926,6.895,6.023
				C397.794,259.961,397.114,263.385,394.955,265.844L394.955,265.844z M430.428,223.522c-3.839,4.773-7.711,9.527-11.616,14.263
				c-3.213,3.896-8.975,4.449-12.871,1.237c-3.896-3.213-4.449-8.975-1.237-12.871c3.857-4.679,7.682-9.374,11.473-14.085
				c2.045-2.549,5.296-3.813,8.525-3.314c3.23,0.499,5.948,2.684,7.129,5.731C433.013,217.531,432.478,220.977,430.428,223.522
				L430.428,223.522z M464.107,179.754L464.107,179.754c-3.625,4.928-7.298,9.842-11.018,14.741
				c-1.966,2.619-5.182,3.986-8.432,3.583c-3.25-0.402-6.036-2.512-7.304-5.531s-0.824-6.486,1.164-9.088
				c3.661-4.839,7.286-9.69,10.875-14.554c1.938-2.628,5.131-4.023,8.376-3.659c3.245,0.364,6.05,2.432,7.357,5.424
				S466.044,177.126,464.107,179.754z"/>
			<path d="M403.058,47.494c-6.089-4.289-12.334-8.298-18.734-12.026c-3.517,2.386-7.036,4.767-10.539,7.197
				c-4.147,2.868-9.833,1.837-12.709-2.304c-2.876-4.142-1.856-9.83,2.28-12.713c0.905-0.628,1.816-1.234,2.721-1.859
				C268.238-20.701,151.729-0.596,75.128,75.996s-96.721,193.097-50.244,290.943c0.591-0.856,1.164-1.718,1.758-2.573
				c2.882-4.141,8.574-5.165,12.718-2.287s5.173,8.569,2.3,12.716c-2.415,3.479-4.781,6.978-7.152,10.474
				c3.696,6.393,7.72,12.641,12.015,18.759C99.65,341.174,157,278.75,217.375,218.375
				C277.769,157.985,340.197,100.625,403.058,47.494z M318.634,60.085L318.634,60.085c4.902-3.719,9.825-7.394,14.768-11.027
				c2.631-1.94,6.098-2.326,9.092-1.014c2.994,1.312,5.059,4.124,5.416,7.373c0.357,3.249-1.049,6.442-3.687,8.373
				c-4.857,3.576-9.702,7.198-14.536,10.866c-2.603,1.975-6.062,2.411-9.073,1.144c-3.011-1.267-5.118-4.044-5.527-7.286
				C314.679,65.272,316.031,62.059,318.634,60.085z M275.322,94.389L275.322,94.389c4.741-3.924,9.503-7.805,14.285-11.643
				c2.549-2.045,5.995-2.575,9.04-1.39s5.227,3.904,5.723,7.134c0.496,3.23-0.768,6.479-3.317,8.524
				c-4.714,3.777-9.405,7.598-14.071,11.464c-2.515,2.098-5.96,2.691-9.032,1.554c-3.072-1.137-5.301-3.83-5.843-7.06
				C271.564,99.741,272.79,96.467,275.322,94.389z M233.491,130.447c4.571-4.107,9.164-8.177,13.777-12.21
				c3.803-3.314,9.571-2.922,12.891,0.876c3.32,3.798,2.937,9.566-0.855,12.892c-4.554,3.978-9.086,7.994-13.598,12.049
				c-2.426,2.215-5.853,2.958-8.979,1.947c-3.125-1.011-5.468-3.621-6.137-6.837C229.92,135.948,231.028,132.62,233.491,130.447
				L233.491,130.447z M73.643,330.701L73.643,330.701c-3.661,4.839-7.286,9.691-10.875,14.554c-1.935,2.636-5.131,4.038-8.381,3.676
				s-6.059-2.433-7.366-5.431c-1.307-2.998-0.913-6.465,1.033-9.093c3.625-4.929,7.298-9.842,11.018-14.741
				c1.966-2.619,5.182-3.986,8.432-3.583c3.25,0.402,6.036,2.512,7.304,5.531C76.075,324.632,75.631,328.099,73.643,330.701z
				 M107.455,288.009L107.455,288.009c-3.857,4.679-7.682,9.374-11.474,14.085c-2.045,2.549-5.296,3.813-8.525,3.314
				c-3.23-0.499-5.948-2.684-7.129-5.731c-1.181-3.047-0.646-6.493,1.404-9.038c3.839-4.773,7.711-9.527,11.616-14.263
				c2.078-2.52,5.343-3.74,8.565-3.2c3.221,0.54,5.91,2.757,7.054,5.817C110.11,282.051,109.534,285.489,107.455,288.009z
				 M143.018,246.759L143.018,246.759c-4.054,4.509-8.069,9.037-12.045,13.585c-2.146,2.47-5.447,3.604-8.658,2.975
				c-3.211-0.629-5.84-2.926-6.895-6.023c-1.055-3.097-0.374-6.521,1.785-8.979c4.027-4.612,8.095-9.205,12.206-13.781
				c3.378-3.746,9.151-4.05,12.904-0.679S146.382,243,143.018,246.759z M180.232,206.973c-4.232,4.344-8.429,8.708-12.59,13.094
				c-2.247,2.37-5.588,3.361-8.765,2.6c-3.176-0.761-5.705-3.159-6.634-6.29c-0.929-3.131-0.117-6.52,2.131-8.89
				c4.214-4.446,8.464-8.87,12.75-13.272c3.525-3.609,9.307-3.682,12.922-0.163C183.661,197.57,183.744,203.352,180.232,206.973
				L180.232,206.973z M199.544,183.875L199.544,183.875c-3.719-0.003-7.065-2.256-8.466-5.7c-1.401-3.444-0.578-7.394,2.082-9.992
				c4.411-4.29,8.839-8.545,13.286-12.763c2.372-2.246,5.761-3.055,8.892-2.124c3.131,0.931,5.527,3.462,6.286,6.638
				s-0.234,6.517-2.606,8.763c-4.384,4.156-8.747,8.351-13.089,12.585C204.222,182.948,201.93,183.879,199.544,183.875z"/>
			<path d="M454.457,95.263c-3.507-4.293-7.23-8.463-11.059-12.572L81.684,444.405c4.099,3.822,8.272,7.54,12.573,11.061
				c63.553-53.554,126.665-111.509,187.68-172.524C343.018,221.861,400.971,158.744,454.457,95.263z"/>
			<path d="M418.002,58.771C354.47,112.31,291.338,170.264,230.303,231.303c-61.031,61.032-118.987,124.151-172.523,187.684
				c3.484,4.261,7.181,8.403,10.982,12.483L430.477,69.755C426.408,65.962,422.269,62.269,418.002,58.771z"/>
		</g>
	</g>
</g>
</svg>
