<svg  version="1.1" id="Capa_1" fill="#0000008a" xmlns="http://www.w3.org/2000/svg" xmlns:xlink="http://www.w3.org/1999/xlink" x="0px" y="0px"
	 viewBox="0 0 433.164 433.164" style="enable-background:new 0 0 433.164 433.164;" xml:space="preserve">
<g id="svgg">
    <path id="path0" d="M215.698 54.004 C 175.074 61.762,152.529 95.175,160.987 135.086 C 163.928 148.959,167.740 155.070,182.624 169.767 C 200.959 187.872,202.622 191.785,194.876 198.586 C 185.060 207.205,142.285 214.004,106.971 212.559 C 84.297 211.631,69.441 201.220,66.817 184.418 C 65.126 173.599,52.223 169.223,43.914 176.650 L 40.116 180.045 40.116 218.802 C 40.116 271.910,45.416 288.538,69.296 310.363 C 100.881 339.230,130.705 347.015,209.884 347.063 C 289.081 347.110,311.872 339.553,334.304 305.811 C 357.642 270.706,350.060 239.696,310.465 208.311 C 271.444 177.381,270.400 167.008,303.784 141.974 C 323.412 127.254,328.017 121.410,331.982 106.187 C 337.931 83.348,329.534 73.253,313.592 84.077 C 308.417 87.590,300.111 90.188,288.849 91.816 C 278.040 93.378,277.907 93.364,277.907 90.660 C 277.907 80.263,265.064 68.152,252.454 66.659 C 248.026 66.134,246.482 65.333,244.685 62.628 C 239.028 54.112,229.684 51.332,215.698 54.004 " stroke="none" fill="#0000008a" fill-rule="evenodd">
</path></g>
</svg>