
<svg version="1.1" id="Capa_1" fill="#0000008a" xmlns="http://www.w3.org/2000/svg" xmlns:xlink="http://www.w3.org/1999/xlink" x="0px" y="0px"
	 viewBox="0 0 433.164 433.164" style="enable-background:new 0 0 433.164 433.164;" xml:space="preserve">
<g>
	<g id="Layer_1_13_">
		<g>
			<path d="M404.291,212.281c0,0-46.853-3.504-54.596-5.962c-5.042-1.601-28.256-13.379-36.632-23.667
				c-18.543-22.771-25.256-53.58-59.189-65.643L135.947,82.154c-6.592-1.957-13.771,1.238-16.629,7.692
				c-3.104,7.012,0.063,15.211,7.073,18.316l89.718,39.725l-96.263,57.927l-13.833,4.17l-83.481-7.12
				c-10.669-0.882-20.48,6.563-22.253,17.311c-1.864,11.316,5.796,22.002,17.11,23.867l88.209,14.541
				c2.573,0.413,5.367,0.341,8.055-0.335l1.41-0.354l22.446-5.646l-12.233,37.656l-90.944,20.67
				c-10.555,2.425-17.633,12.671-15.897,23.523c1.811,11.321,12.456,19.032,23.778,17.222l106.471-17.029
				c7.867-1.278,14.878-6.632,17.851-14.636l0.446-1.199l18.763-50.491l94.73-57.006l52.062,30.529l1.145,0.675
				c2.282,1.327,4.912,2.131,7.733,2.242l60.321,2.363c8.982,0.331,16.886-6.333,17.877-15.41
				C420.649,221.86,413.789,213.319,404.291,212.281z"/>
			<circle cx="331.843" cy="125.197" r="43.611"/>
			<circle cx="415.138" cy="192.073" r="18.026"/>
		</g>
	</g>
</g>
</svg>
